<svg xmlns="http://www.w3.org/2000/svg" viewBox="0 0 120 120" width="480" height="480"><circle cx="60" cy="60" r="56" fill="#F3D9B1"/>
 <path d="M44 48c-6-6 6-10 0-18M60 48c-6-6 6-10 0-18M76 48c-6-6 6-10 0-18" fill="none" stroke="#2F7D4F" stroke-width="4" stroke-linecap="round" transform="translate(-2 2)"/>
 <path d="M84 62h6a10 10 0 0 1 0 20h-7" fill="none" stroke="#1E3326" stroke-width="5" stroke-linecap="round"/>
 <path d="M28 56H88V72C88 88 78 97 58 97C38 97 28 88 28 72Z" fill="#B8542F"/>
 <path d="M42 76l9 9 17-18" fill="none" stroke="#FBFDF9" stroke-width="5" stroke-linecap="round" stroke-linejoin="round"/>
 <rect x="24" y="97" width="72" height="7" rx="3.5" fill="#1E3326"/></svg>